# MagicaVoxel @ Ephtracy

# group
o 

# material
mtllib nivel1.mtl
usemtl palette

# normals
vn -1 0 0
vn 1 0 0
vn 0 0 1
vn 0 0 -1
vn 0 -1 0
vn 0 1 0

# texcoords
vt 0.162109 0.5
vt 0.884766 0.5
vt 0.958984 0.5
vt 0.962891 0.5
vt 0.966797 0.5
vt 0.970703 0.5
vt 0.974609 0.5
vt 0.978516 0.5
vt 0.982422 0.5
vt 0.986328 0.5
vt 0.990234 0.5

# verts
v 0.3 2 -3.2
v 0.3 2 -3.7
v 0.3 2.4 -3.2
v 0.3 2.4 -3.7
v 0.3 2.5 -3.2
v 0.3 2.5 -3.7
v 1.3 2 -3.2
v 1.3 2 -3.3
v 1.3 2 -3.4
v 1.3 2 -3.5
v 1.3 2 -3.7
v 1.3 2.3 -3.5
v 1.3 2.3 -3.7
v 1.3 2.4 -3.4
v 1.3 2.4 -3.7
v 1.3 2.5 -3.3
v 1.3 2.5 -3.7
v 1.3 2.6 -3.2
v 1.3 2.6 -3.7
v 1.9 2 -3.1
v 1.9 2 -3.4
v 1.9 2 -3.5
v 1.9 2 -3.6
v 1.9 2.1 -3.1
v 1.9 2.1 -3.4
v 1.9 2.2 -3.1
v 1.9 2.2 -3.5
v 1.9 2.3 -3.1
v 1.9 2.3 -3.6
v 2.2 2 -3
v 2.2 2 -3.1
v 2.2 2.1 -3
v 2.2 2.1 -3.1
v 2.2 2.2 -3
v 2.2 2.2 -3.1
v 2.2 2.3 -3
v 2.2 2.3 -3.1
v 2.2 2.3 -3.3
v 2.2 2.4 -3
v 2.2 2.4 -3.3
v 2.6 2 -2.9
v 2.6 2 -3
v 2.6 2.1 -2.9
v 2.6 2.1 -3
v 2.6 2.2 -2.9
v 2.6 2.2 -3
v 2.6 2.3 -2.9
v 2.6 2.3 -3
v 2.6 2.4 -2.9
v 2.6 2.4 -3
v 2.8 2 -3.6
v 2.8 2 -3.7
v 2.8 2.2 -3.6
v 2.8 2.2 -3.7
v 2.8 2.3 -3.6
v 2.8 2.3 -3.7
v 3.2 2 -0.6
v 3.2 2 -1.3
v 3.2 2 -2
v 3.2 2 -2.6
v 3.2 2 -2.8
v 3.2 2 -2.9
v 3.2 2.1 -2.8
v 3.2 2.1 -2.9
v 3.2 2.2 -0.6
v 3.2 2.2 -1.3
v 3.2 2.2 -2
v 3.2 2.2 -2.6
v 3.2 2.2 -2.8
v 3.2 2.2 -2.9
v 3.2 2.3 -0.6
v 3.2 2.3 -1.3
v 3.2 2.3 -2
v 3.2 2.3 -2.6
v 3.2 2.3 -2.8
v 3.2 2.3 -2.9
v 3.2 2.4 -0.6
v 3.2 2.4 -1.3
v 3.2 2.4 -2
v 3.2 2.4 -2.6
v 3.2 2.4 -2.9
v 3.2 2.4 -3
v 3.2 2.5 -2.5
v 3.2 2.5 -2.6
v 3.2 2.5 -2.8
v 3.2 2.5 -3
v 3.2 2.6 -0.6
v 3.2 2.6 -1
v 3.2 2.6 -2.3
v 3.2 2.6 -2.5
v 3.2 2.7 -1
v 3.2 2.7 -1.3
v 3.2 2.7 -2
v 3.2 2.7 -2.3
v 3.3 2 0
v 3.3 2 -0.3
v 3.3 2 -1.8
v 3.3 2 -2
v 3.3 2.1 0
v 3.3 2.1 -0.3
v 3.3 2.2 0
v 3.3 2.2 -0.3
v 3.3 2.2 -1.8
v 3.3 2.2 -2
v 3.3 2.3 0
v 3.3 2.3 -0.3
v 3.3 2.3 -1.8
v 3.3 2.3 -2
v 3.3 2.4 0
v 3.3 2.4 -0.3
v 3.3 2.4 -1.8
v 3.3 2.4 -2
v 3.3 2.5 0
v 3.3 2.5 -0.3
v 3.3 2.6 0
v 3.3 2.6 -0.3
v 3.3 2.7 0
v 3.3 2.7 -0.3
v 3.3 2.7 -1.8
v 3.3 2.7 -2
v 3.3 2.8 0
v 3.3 2.8 -0.3
v 3.3 2.9 0
v 3.3 2.9 -0.3
v 3.4 2 -1.3
v 3.4 2 -1.8
v 3.4 2.2 -1.3
v 3.4 2.2 -1.8
v 3.4 2.3 -1.3
v 3.4 2.3 -1.8
v 3.4 2.4 -1.3
v 3.4 2.4 -1.8
v 3.4 2.7 -1.3
v 3.4 2.7 -1.8
v 3.6 2.5 -2.5
v 3.6 2.5 -2.6
v 3.6 2.6 -2.5
v 3.6 2.6 -2.6
v 0.8 2 -3.2
v 0.8 2 -3.7
v 0.8 2.5 -3.2
v 0.8 2.5 -3.7
v 1.5 2 -3.2
v 1.5 2 -3.3
v 1.5 2 -3.4
v 1.5 2 -3.5
v 1.5 2 -3.7
v 1.5 2.3 -3.5
v 1.5 2.3 -3.7
v 1.5 2.4 -3.4
v 1.5 2.4 -3.7
v 1.5 2.5 -3.3
v 1.5 2.5 -3.7
v 1.5 2.6 -3.2
v 1.5 2.6 -3.7
v 3.3 2 -3.6
v 3.3 2 -3.7
v 3.3 2.2 -3.6
v 3.3 2.2 -3.7
v 3.3 2.3 -3.6
v 3.3 2.3 -3.7
v 3.5 2 -0.6
v 3.5 2 -0.7
v 3.5 2.3 -0.6
v 3.5 2.3 -0.7
v 3.5 2.4 -0.6
v 3.5 2.4 -0.7
v 3.5 2.6 -0.6
v 3.5 2.6 -0.7
v 3.6 2 0
v 3.6 2 -0.3
v 3.6 2 -1.4
v 3.6 2 -1.8
v 3.6 2 -1.9
v 3.6 2 -2.2
v 3.6 2 -2.8
v 3.6 2 -2.9
v 3.6 2 -3.5
v 3.6 2 -3.6
v 3.6 2.1 0
v 3.6 2.1 -0.3
v 3.6 2.1 -2.8
v 3.6 2.1 -2.9
v 3.6 2.2 0
v 3.6 2.2 -0.3
v 3.6 2.2 -2.8
v 3.6 2.2 -2.9
v 3.6 2.2 -3.5
v 3.6 2.2 -3.6
v 3.6 2.3 0
v 3.6 2.3 -0.3
v 3.6 2.3 -2.8
v 3.6 2.3 -2.9
v 3.6 2.3 -3.5
v 3.6 2.3 -3.6
v 3.6 2.4 0
v 3.6 2.4 -0.3
v 3.6 2.5 0
v 3.6 2.5 -0.3
v 3.6 2.5 -2.8
v 3.6 2.5 -2.9
v 3.6 2.6 0
v 3.6 2.6 -0.3
v 3.6 2.7 0
v 3.6 2.7 -0.3
v 3.6 2.7 -1.4
v 3.6 2.7 -1.8
v 3.6 2.7 -1.9
v 3.6 2.7 -2.2
v 3.6 2.8 0
v 3.6 2.8 -0.3
v 3.6 2.9 0
v 3.6 2.9 -0.3
v 3.7 2 -0.7
v 3.7 2 -1.4
v 3.7 2 -1.8
v 3.7 2 -1.9
v 3.7 2 -2.2
v 3.7 2 -2.6
v 3.7 2 -2.9
v 3.7 2 -3.5
v 3.7 2.2 -3.3
v 3.7 2.2 -3.5
v 3.7 2.3 -3.1
v 3.7 2.3 -3.3
v 3.7 2.3 -3.5
v 3.7 2.4 -3
v 3.7 2.4 -3.1
v 3.7 2.4 -3.3
v 3.7 2.5 -2.9
v 3.7 2.5 -3
v 3.7 2.6 -0.7
v 3.7 2.6 -1
v 3.7 2.6 -2.3
v 3.7 2.6 -2.6
v 3.7 2.7 -1
v 3.7 2.7 -1.4
v 3.7 2.7 -1.8
v 3.7 2.7 -1.9
v 3.7 2.7 -2.2
v 3.7 2.7 -2.3
v 3.3 2 0
v 3.3 2.1 0
v 3.3 2.2 0
v 3.3 2.3 0
v 3.3 2.4 0
v 3.3 2.5 0
v 3.3 2.6 0
v 3.3 2.7 0
v 3.3 2.8 0
v 3.3 2.9 0
v 3.6 2 0
v 3.6 2.1 0
v 3.6 2.2 0
v 3.6 2.3 0
v 3.6 2.4 0
v 3.6 2.5 0
v 3.6 2.6 0
v 3.6 2.7 0
v 3.6 2.8 0
v 3.6 2.9 0
v 3.2 2 -0.6
v 3.2 2.2 -0.6
v 3.2 2.3 -0.6
v 3.2 2.4 -0.6
v 3.2 2.6 -0.6
v 3.4 2 -0.6
v 3.4 2.2 -0.6
v 3.5 2 -0.6
v 3.5 2.3 -0.6
v 3.5 2.4 -0.6
v 3.5 2.6 -0.6
v 3.5 2 -0.7
v 3.5 2.3 -0.7
v 3.5 2.4 -0.7
v 3.5 2.6 -0.7
v 3.6 2 -0.7
v 3.6 2.4 -0.7
v 3.7 2 -0.7
v 3.7 2.6 -0.7
v 3.2 2.6 -1
v 3.2 2.7 -1
v 3.7 2.6 -1
v 3.7 2.7 -1
v 3.3 2 -1.8
v 3.3 2.2 -1.8
v 3.3 2.3 -1.8
v 3.3 2.4 -1.8
v 3.3 2.7 -1.8
v 3.4 2 -1.8
v 3.4 2.2 -1.8
v 3.4 2.3 -1.8
v 3.4 2.4 -1.8
v 3.4 2.7 -1.8
v 3.6 2 -1.8
v 3.6 2.7 -1.8
v 3.7 2 -1.8
v 3.7 2.7 -1.8
v 3.2 2 -2
v 3.2 2.2 -2
v 3.2 2.3 -2
v 3.2 2.4 -2
v 3.2 2.7 -2
v 3.3 2 -2
v 3.3 2.2 -2
v 3.3 2.3 -2
v 3.3 2.4 -2
v 3.3 2.7 -2
v 3.6 2 -2.2
v 3.6 2.7 -2.2
v 3.7 2 -2.2
v 3.7 2.7 -2.2
v 3.2 2 -2.8
v 3.2 2.1 -2.8
v 3.2 2.2 -2.8
v 3.2 2.3 -2.8
v 3.2 2.5 -2.8
v 3.6 2 -2.8
v 3.6 2.1 -2.8
v 3.6 2.2 -2.8
v 3.6 2.3 -2.8
v 3.6 2.5 -2.8
v 2.6 2 -2.9
v 2.6 2.1 -2.9
v 2.6 2.2 -2.9
v 2.6 2.3 -2.9
v 2.6 2.4 -2.9
v 3.2 2 -2.9
v 3.2 2.1 -2.9
v 3.2 2.2 -2.9
v 3.2 2.3 -2.9
v 3.2 2.4 -2.9
v 3.6 2 -2.9
v 3.6 2.1 -2.9
v 3.6 2.2 -2.9
v 3.6 2.3 -2.9
v 3.6 2.5 -2.9
v 3.7 2 -2.9
v 3.7 2.5 -2.9
v 2.2 2 -3
v 2.2 2.1 -3
v 2.2 2.2 -3
v 2.2 2.3 -3
v 2.2 2.4 -3
v 2.6 2 -3
v 2.6 2.1 -3
v 2.6 2.2 -3
v 2.6 2.3 -3
v 2.6 2.4 -3
v 1.9 2 -3.1
v 1.9 2.1 -3.1
v 1.9 2.2 -3.1
v 1.9 2.3 -3.1
v 2.2 2 -3.1
v 2.2 2.1 -3.1
v 2.2 2.2 -3.1
v 2.2 2.3 -3.1
v 0.3 2 -3.2
v 0.3 2.4 -3.2
v 0.3 2.5 -3.2
v 0.7 2 -3.2
v 0.7 2.4 -3.2
v 0.8 2 -3.2
v 0.8 2.5 -3.2
v 1.3 2 -3.2
v 1.3 2.6 -3.2
v 1.5 2 -3.2
v 1.5 2.6 -3.2
v 3.3 2 -0.3
v 3.3 2.1 -0.3
v 3.3 2.2 -0.3
v 3.3 2.3 -0.3
v 3.3 2.4 -0.3
v 3.3 2.5 -0.3
v 3.3 2.6 -0.3
v 3.3 2.7 -0.3
v 3.3 2.8 -0.3
v 3.3 2.9 -0.3
v 3.6 2 -0.3
v 3.6 2.1 -0.3
v 3.6 2.2 -0.3
v 3.6 2.3 -0.3
v 3.6 2.4 -0.3
v 3.6 2.5 -0.3
v 3.6 2.6 -0.3
v 3.6 2.7 -0.3
v 3.6 2.8 -0.3
v 3.6 2.9 -0.3
v 3.2 2 -1.3
v 3.2 2.2 -1.3
v 3.2 2.3 -1.3
v 3.2 2.4 -1.3
v 3.2 2.7 -1.3
v 3.3 2.3 -1.3
v 3.3 2.4 -1.3
v 3.4 2 -1.3
v 3.4 2.2 -1.3
v 3.4 2.3 -1.3
v 3.4 2.4 -1.3
v 3.4 2.7 -1.3
v 3.6 2 -1.4
v 3.6 2.7 -1.4
v 3.7 2 -1.4
v 3.7 2.7 -1.4
v 3.6 2 -1.9
v 3.6 2.7 -1.9
v 3.7 2 -1.9
v 3.7 2.7 -1.9
v 3.2 2.6 -2.3
v 3.2 2.7 -2.3
v 3.7 2.6 -2.3
v 3.7 2.7 -2.3
v 3.2 2.5 -2.5
v 3.2 2.6 -2.5
v 3.6 2.5 -2.5
v 3.6 2.6 -2.5
v 3.2 2 -2.6
v 3.2 2.2 -2.6
v 3.2 2.3 -2.6
v 3.2 2.4 -2.6
v 3.2 2.5 -2.6
v 3.4 2 -2.6
v 3.4 2.2 -2.6
v 3.5 2 -2.6
v 3.5 2.3 -2.6
v 3.6 2 -2.6
v 3.6 2.4 -2.6
v 3.6 2.5 -2.6
v 3.6 2.6 -2.6
v 3.7 2 -2.6
v 3.7 2.6 -2.6
v 3.2 2.4 -3
v 3.2 2.5 -3
v 3.7 2.4 -3
v 3.7 2.5 -3
v 2.2 2.3 -3.3
v 2.2 2.4 -3.3
v 2.3 2.3 -3.3
v 2.6 2.3 -3.3
v 2.6 2.4 -3.3
v 2.7 2.3 -3.3
v 2.7 2.4 -3.3
v 3.6 2.3 -3.3
v 3.6 2.4 -3.3
v 3.7 2.3 -3.3
v 3.7 2.4 -3.3
v 3.6 2 -3.5
v 3.6 2.2 -3.5
v 3.6 2.3 -3.5
v 3.7 2 -3.5
v 3.7 2.2 -3.5
v 3.7 2.3 -3.5
v 1.9 2 -3.6
v 1.9 2.3 -3.6
v 2.1 2.2 -3.6
v 2.1 2.3 -3.6
v 2.3 2.2 -3.6
v 2.3 2.3 -3.6
v 2.8 2 -3.6
v 2.8 2.2 -3.6
v 2.8 2.3 -3.6
v 3.3 2 -3.6
v 3.3 2.2 -3.6
v 3.3 2.3 -3.6
v 3.6 2 -3.6
v 3.6 2.2 -3.6
v 3.6 2.3 -3.6
v 0.3 2 -3.7
v 0.3 2.4 -3.7
v 0.3 2.5 -3.7
v 0.7 2 -3.7
v 0.7 2.4 -3.7
v 0.8 2 -3.7
v 0.8 2.5 -3.7
v 1.3 2 -3.7
v 1.3 2.3 -3.7
v 1.3 2.4 -3.7
v 1.3 2.5 -3.7
v 1.3 2.6 -3.7
v 1.5 2 -3.7
v 1.5 2.3 -3.7
v 1.5 2.4 -3.7
v 1.5 2.5 -3.7
v 1.5 2.6 -3.7
v 2.8 2 -3.7
v 2.8 2.2 -3.7
v 2.8 2.3 -3.7
v 3.3 2 -3.7
v 3.3 2.2 -3.7
v 3.3 2.3 -3.7
v 3.3 2 0
v 3.6 2 0
v 3.3 2 -0.3
v 3.6 2 -0.3
v 3.2 2 -0.6
v 3.4 2 -0.6
v 3.5 2 -0.6
v 3.3 2 -0.7
v 3.4 2 -0.7
v 3.5 2 -0.7
v 3.6 2 -0.7
v 3.7 2 -0.7
v 3.5 2 -0.8
v 3.6 2 -0.8
v 3.3 2 -1.2
v 3.5 2 -1.2
v 3.2 2 -1.3
v 3.4 2 -1.3
v 3.6 2 -1.4
v 3.7 2 -1.4
v 3.3 2 -1.8
v 3.4 2 -1.8
v 3.6 2 -1.8
v 3.7 2 -1.8
v 3.6 2 -1.9
v 3.7 2 -1.9
v 3.2 2 -2
v 3.3 2 -2
v 3.5 2 -2
v 3.6 2 -2.2
v 3.7 2 -2.2
v 3.3 2 -2.5
v 3.4 2 -2.5
v 3.5 2 -2.5
v 3.6 2 -2.5
v 3.2 2 -2.6
v 3.4 2 -2.6
v 3.5 2 -2.6
v 3.6 2 -2.6
v 3.7 2 -2.6
v 3.2 2 -2.8
v 3.6 2 -2.8
v 2.6 2 -2.9
v 3.2 2 -2.9
v 3.6 2 -2.9
v 3.7 2 -2.9
v 2.2 2 -3
v 2.6 2 -3
v 1.9 2 -3.1
v 2.2 2 -3.1
v 3.6 2 -3.1
v 0.3 2 -3.2
v 0.7 2 -3.2
v 0.8 2 -3.2
v 1.3 2 -3.2
v 1.5 2 -3.2
v 1.3 2 -3.3
v 1.5 2 -3.3
v 1.3 2 -3.4
v 1.5 2 -3.4
v 1.9 2 -3.4
v 2.2 2 -3.4
v 3.6 2 -3.4
v 1.3 2 -3.5
v 1.5 2 -3.5
v 1.9 2 -3.5
v 2.2 2 -3.5
v 3.6 2 -3.5
v 3.7 2 -3.5
v 1.9 2 -3.6
v 2.8 2 -3.6
v 3.3 2 -3.6
v 3.6 2 -3.6
v 0.3 2 -3.7
v 0.7 2 -3.7
v 0.8 2 -3.7
v 1.3 2 -3.7
v 1.5 2 -3.7
v 2.8 2 -3.7
v 3.3 2 -3.7
v 1.9 2.3 -3.1
v 2.2 2.3 -3.1
v 2.1 2.3 -3.3
v 2.2 2.3 -3.3
v 2.3 2.3 -3.3
v 2.6 2.3 -3.3
v 2.7 2.3 -3.3
v 3.6 2.3 -3.3
v 3.7 2.3 -3.3
v 2.7 2.3 -3.4
v 2.8 2.3 -3.4
v 3.5 2.3 -3.4
v 3.6 2.3 -3.4
v 2.8 2.3 -3.5
v 3.5 2.3 -3.5
v 3.6 2.3 -3.5
v 3.7 2.3 -3.5
v 1.9 2.3 -3.6
v 2.1 2.3 -3.6
v 2.3 2.3 -3.6
v 2.8 2.3 -3.6
v 3.3 2.3 -3.6
v 3.6 2.3 -3.6
v 2.8 2.3 -3.7
v 3.3 2.3 -3.7
v 2.6 2.4 -2.9
v 3.2 2.4 -2.9
v 2.2 2.4 -3
v 2.6 2.4 -3
v 3.2 2.4 -3
v 3.7 2.4 -3
v 2.6 2.4 -3.1
v 3.7 2.4 -3.1
v 2.7 2.4 -3.2
v 3.6 2.4 -3.2
v 2.2 2.4 -3.3
v 2.6 2.4 -3.3
v 2.7 2.4 -3.3
v 3.6 2.4 -3.3
v 3.7 2.4 -3.3
v 3.2 2.5 -2.5
v 3.6 2.5 -2.5
v 3.2 2.5 -2.6
v 3.6 2.5 -2.6
v 3.2 2.5 -2.8
v 3.6 2.5 -2.8
v 3.6 2.5 -2.9
v 3.7 2.5 -2.9
v 3.2 2.5 -3
v 3.7 2.5 -3
v 0.3 2.5 -3.2
v 0.8 2.5 -3.2
v 0.5 2.5 -3.4
v 0.6 2.5 -3.4
v 0.5 2.5 -3.5
v 0.6 2.5 -3.5
v 0.3 2.5 -3.7
v 0.8 2.5 -3.7
v 3.2 2.6 -0.6
v 3.5 2.6 -0.6
v 3.5 2.6 -0.7
v 3.7 2.6 -0.7
v 3.2 2.6 -1
v 3.7 2.6 -1
v 3.2 2.6 -2.3
v 3.7 2.6 -2.3
v 3.2 2.6 -2.5
v 3.6 2.6 -2.5
v 3.6 2.6 -2.6
v 3.7 2.6 -2.6
v 1.3 2.6 -3.2
v 1.5 2.6 -3.2
v 1.3 2.6 -3.7
v 1.5 2.6 -3.7
v 3.2 2.7 -1
v 3.7 2.7 -1
v 3.2 2.7 -1.3
v 3.4 2.7 -1.3
v 3.6 2.7 -1.4
v 3.7 2.7 -1.4
v 3.3 2.7 -1.8
v 3.4 2.7 -1.8
v 3.6 2.7 -1.8
v 3.7 2.7 -1.8
v 3.6 2.7 -1.9
v 3.7 2.7 -1.9
v 3.2 2.7 -2
v 3.3 2.7 -2
v 3.6 2.7 -2.2
v 3.7 2.7 -2.2
v 3.2 2.7 -2.3
v 3.7 2.7 -2.3
v 3.3 2.9 0
v 3.6 2.9 0
v 3.4 2.9 -0.1
v 3.5 2.9 -0.1
v 3.4 2.9 -0.2
v 3.5 2.9 -0.2
v 3.3 2.9 -0.3
v 3.6 2.9 -0.3

# faces
f 3/4/1 2/4/1 1/4/1
f 4/4/1 2/4/1 3/4/1
f 5/3/1 4/3/1 3/3/1
f 6/3/1 4/3/1 5/3/1
f 12/5/1 10/5/1 9/5/1
f 12/6/1 11/6/1 10/6/1
f 13/6/1 11/6/1 12/6/1
f 14/4/1 9/4/1 8/4/1
f 14/5/1 12/5/1 9/5/1
f 14/5/1 13/5/1 12/5/1
f 15/5/1 13/5/1 14/5/1
f 16/3/1 8/3/1 7/3/1
f 16/4/1 14/4/1 8/4/1
f 16/4/1 15/4/1 14/4/1
f 17/4/1 15/4/1 16/4/1
f 18/3/1 16/3/1 7/3/1
f 18/3/1 17/3/1 16/3/1
f 19/3/1 17/3/1 18/3/1
f 24/5/1 21/5/1 20/5/1
f 25/4/1 22/4/1 21/4/1
f 25/5/1 21/5/1 24/5/1
f 26/4/1 25/4/1 24/4/1
f 27/3/1 23/3/1 22/3/1
f 27/4/1 25/4/1 26/4/1
f 27/4/1 22/4/1 25/4/1
f 28/3/1 27/3/1 26/3/1
f 29/3/1 23/3/1 27/3/1
f 29/3/1 27/3/1 28/3/1
f 32/6/1 31/6/1 30/6/1
f 33/6/1 31/6/1 32/6/1
f 34/5/1 33/5/1 32/5/1
f 35/5/1 33/5/1 34/5/1
f 36/4/1 35/4/1 34/4/1
f 37/4/1 35/4/1 36/4/1
f 39/3/1 37/3/1 36/3/1
f 39/3/1 38/3/1 37/3/1
f 40/3/1 38/3/1 39/3/1
f 43/6/1 42/6/1 41/6/1
f 44/6/1 42/6/1 43/6/1
f 45/5/1 44/5/1 43/5/1
f 46/5/1 44/5/1 45/5/1
f 47/4/1 46/4/1 45/4/1
f 48/4/1 46/4/1 47/4/1
f 49/3/1 48/3/1 47/3/1
f 50/3/1 48/3/1 49/3/1
f 53/3/1 52/3/1 51/3/1
f 54/3/1 52/3/1 53/3/1
f 55/5/1 54/5/1 53/5/1
f 56/5/1 54/5/1 55/5/1
f 63/6/1 62/6/1 61/6/1
f 64/6/1 62/6/1 63/6/1
f 65/6/1 58/6/1 57/6/1
f 66/6/1 58/6/1 65/6/1
f 67/6/1 60/6/1 59/6/1
f 68/6/1 60/6/1 67/6/1
f 69/5/1 64/5/1 63/5/1
f 70/5/1 64/5/1 69/5/1
f 71/5/1 66/5/1 65/5/1
f 72/5/1 66/5/1 71/5/1
f 73/5/1 68/5/1 67/5/1
f 74/5/1 68/5/1 73/5/1
f 75/4/1 70/4/1 69/4/1
f 76/4/1 70/4/1 75/4/1
f 77/4/1 72/4/1 71/4/1
f 78/4/1 72/4/1 77/4/1
f 79/4/1 74/4/1 73/4/1
f 80/4/1 74/4/1 79/4/1
f 81/3/1 76/3/1 75/3/1
f 83/3/1 80/3/1 79/3/1
f 84/3/1 80/3/1 83/3/1
f 85/3/1 81/3/1 75/3/1
f 85/3/1 82/3/1 81/3/1
f 86/3/1 82/3/1 85/3/1
f 87/3/1 78/3/1 77/3/1
f 88/3/1 78/3/1 87/3/1
f 89/3/1 83/3/1 79/3/1
f 90/3/1 83/3/1 89/3/1
f 91/3/1 78/3/1 88/3/1
f 92/3/1 78/3/1 91/3/1
f 93/3/1 89/3/1 79/3/1
f 94/3/1 89/3/1 93/3/1
f 99/11/1 96/11/1 95/11/1
f 100/11/1 96/11/1 99/11/1
f 101/10/1 100/10/1 99/10/1
f 102/10/1 100/10/1 101/10/1
f 103/6/1 98/6/1 97/6/1
f 104/6/1 98/6/1 103/6/1
f 105/9/1 102/9/1 101/9/1
f 106/9/1 102/9/1 105/9/1
f 107/5/1 104/5/1 103/5/1
f 108/5/1 104/5/1 107/5/1
f 109/8/1 106/8/1 105/8/1
f 110/8/1 106/8/1 109/8/1
f 111/4/1 108/4/1 107/4/1
f 112/4/1 108/4/1 111/4/1
f 113/7/1 110/7/1 109/7/1
f 114/7/1 110/7/1 113/7/1
f 115/6/1 114/6/1 113/6/1
f 116/6/1 114/6/1 115/6/1
f 117/5/1 116/5/1 115/5/1
f 118/5/1 116/5/1 117/5/1
f 119/3/1 112/3/1 111/3/1
f 120/3/1 112/3/1 119/3/1
f 121/4/1 118/4/1 117/4/1
f 122/4/1 118/4/1 121/4/1
f 123/3/1 122/3/1 121/3/1
f 124/3/1 122/3/1 123/3/1
f 127/6/1 126/6/1 125/6/1
f 128/6/1 126/6/1 127/6/1
f 129/5/1 128/5/1 127/5/1
f 130/5/1 128/5/1 129/5/1
f 131/4/1 130/4/1 129/4/1
f 132/4/1 130/4/1 131/4/1
f 133/3/1 132/3/1 131/3/1
f 134/3/1 132/3/1 133/3/1
f 137/3/1 136/3/1 135/3/1
f 138/3/1 136/3/1 137/3/1
f 139/3/2 140/3/2 141/3/2
f 141/3/2 140/3/2 142/3/2
f 145/5/2 146/5/2 148/5/2
f 146/6/2 147/6/2 148/6/2
f 148/6/2 147/6/2 149/6/2
f 144/4/2 145/4/2 150/4/2
f 145/5/2 148/5/2 150/5/2
f 148/5/2 149/5/2 150/5/2
f 150/5/2 149/5/2 151/5/2
f 143/3/2 144/3/2 152/3/2
f 144/4/2 150/4/2 152/4/2
f 150/4/2 151/4/2 152/4/2
f 152/4/2 151/4/2 153/4/2
f 143/3/2 152/3/2 154/3/2
f 152/3/2 153/3/2 154/3/2
f 154/3/2 153/3/2 155/3/2
f 156/3/2 157/3/2 158/3/2
f 158/3/2 157/3/2 159/3/2
f 158/5/2 159/5/2 160/5/2
f 160/5/2 159/5/2 161/5/2
f 162/5/2 163/5/2 164/5/2
f 164/5/2 163/5/2 165/5/2
f 164/4/2 165/4/2 166/4/2
f 166/4/2 165/4/2 167/4/2
f 166/3/2 167/3/2 168/3/2
f 168/3/2 167/3/2 169/3/2
f 170/11/2 171/11/2 180/11/2
f 180/11/2 171/11/2 181/11/2
f 176/6/2 177/6/2 182/6/2
f 182/6/2 177/6/2 183/6/2
f 180/10/2 181/10/2 184/10/2
f 184/10/2 181/10/2 185/10/2
f 182/5/2 183/5/2 186/5/2
f 186/5/2 183/5/2 187/5/2
f 178/3/2 179/3/2 188/3/2
f 188/3/2 179/3/2 189/3/2
f 184/9/2 185/9/2 190/9/2
f 190/9/2 185/9/2 191/9/2
f 186/4/2 187/4/2 192/4/2
f 192/4/2 187/4/2 193/4/2
f 188/5/2 189/5/2 194/5/2
f 194/5/2 189/5/2 195/5/2
f 190/8/2 191/8/2 196/8/2
f 196/8/2 191/8/2 197/8/2
f 196/7/2 197/7/2 198/7/2
f 198/7/2 197/7/2 199/7/2
f 192/3/2 193/3/2 200/3/2
f 200/3/2 193/3/2 201/3/2
f 198/6/2 199/6/2 202/6/2
f 202/6/2 199/6/2 203/6/2
f 202/5/2 203/5/2 204/5/2
f 204/5/2 203/5/2 205/5/2
f 172/3/2 173/3/2 206/3/2
f 206/3/2 173/3/2 207/3/2
f 174/3/2 175/3/2 208/3/2
f 208/3/2 175/3/2 209/3/2
f 204/4/2 205/4/2 210/4/2
f 210/4/2 205/4/2 211/4/2
f 210/3/2 211/3/2 212/3/2
f 212/3/2 211/3/2 213/3/2
f 220/3/2 221/3/2 222/3/2
f 222/3/2 221/3/2 223/3/2
f 220/3/2 222/3/2 224/3/2
f 222/5/2 223/5/2 225/5/2
f 224/3/2 222/3/2 225/3/2
f 225/5/2 223/5/2 226/5/2
f 220/3/2 224/3/2 227/3/2
f 224/4/2 225/4/2 228/4/2
f 227/3/2 224/3/2 228/3/2
f 228/4/2 225/4/2 229/4/2
f 220/3/2 227/3/2 230/3/2
f 230/3/2 227/3/2 231/3/2
f 214/3/2 215/3/2 232/3/2
f 232/3/2 215/3/2 233/3/2
f 218/3/2 219/3/2 234/3/2
f 234/3/2 219/3/2 235/3/2
f 233/3/2 215/3/2 236/3/2
f 236/3/2 215/3/2 237/3/2
f 216/3/2 217/3/2 238/3/2
f 238/3/2 217/3/2 239/3/2
f 218/3/2 234/3/2 240/3/2
f 240/3/2 234/3/2 241/3/2
f 252/11/3 243/11/3 242/11/3
f 253/10/3 244/10/3 243/10/3
f 253/11/3 243/11/3 252/11/3
f 254/9/3 245/9/3 244/9/3
f 254/10/3 244/10/3 253/10/3
f 255/8/3 246/8/3 245/8/3
f 255/9/3 245/9/3 254/9/3
f 256/7/3 247/7/3 246/7/3
f 256/8/3 246/8/3 255/8/3
f 257/6/3 248/6/3 247/6/3
f 257/7/3 247/7/3 256/7/3
f 258/5/3 249/5/3 248/5/3
f 258/6/3 248/6/3 257/6/3
f 259/4/3 250/4/3 249/4/3
f 259/5/3 249/5/3 258/5/3
f 260/3/3 251/3/3 250/3/3
f 260/4/3 250/4/3 259/4/3
f 261/3/3 251/3/3 260/3/3
f 267/6/3 263/6/3 262/6/3
f 268/5/3 264/5/3 263/5/3
f 268/6/3 263/6/3 267/6/3
f 269/5/3 268/5/3 267/5/3
f 270/4/3 265/4/3 264/4/3
f 270/5/3 268/5/3 269/5/3
f 270/5/3 264/5/3 268/5/3
f 271/3/3 266/3/3 265/3/3
f 271/4/3 265/4/3 270/4/3
f 272/3/3 266/3/3 271/3/3
f 277/4/3 274/4/3 273/4/3
f 277/4/3 275/4/3 274/4/3
f 278/3/3 276/3/3 275/3/3
f 278/4/3 275/4/3 277/4/3
f 279/3/3 278/3/3 277/3/3
f 280/3/3 276/3/3 278/3/3
f 280/3/3 278/3/3 279/3/3
f 283/3/3 282/3/3 281/3/3
f 284/3/3 282/3/3 283/3/3
f 290/6/3 286/6/3 285/6/3
f 291/5/3 287/5/3 286/5/3
f 291/6/3 286/6/3 290/6/3
f 292/4/3 288/4/3 287/4/3
f 292/5/3 287/5/3 291/5/3
f 293/3/3 289/3/3 288/3/3
f 293/4/3 288/4/3 292/4/3
f 294/3/3 289/3/3 293/3/3
f 297/3/3 296/3/3 295/3/3
f 298/3/3 296/3/3 297/3/3
f 304/6/3 300/6/3 299/6/3
f 305/5/3 301/5/3 300/5/3
f 305/6/3 300/6/3 304/6/3
f 306/4/3 302/4/3 301/4/3
f 306/5/3 301/5/3 305/5/3
f 307/3/3 303/3/3 302/3/3
f 307/4/3 302/4/3 306/4/3
f 308/3/3 303/3/3 307/3/3
f 311/3/3 310/3/3 309/3/3
f 312/3/3 310/3/3 311/3/3
f 318/6/3 314/6/3 313/6/3
f 319/5/3 315/5/3 314/5/3
f 319/6/3 314/6/3 318/6/3
f 320/4/3 316/4/3 315/4/3
f 320/5/3 315/5/3 319/5/3
f 321/3/3 317/3/3 316/3/3
f 321/4/3 316/4/3 320/4/3
f 322/3/3 317/3/3 321/3/3
f 328/6/3 324/6/3 323/6/3
f 329/5/3 325/5/3 324/5/3
f 329/6/3 324/6/3 328/6/3
f 330/4/3 326/4/3 325/4/3
f 330/5/3 325/5/3 329/5/3
f 331/3/3 327/3/3 326/3/3
f 331/4/3 326/4/3 330/4/3
f 332/3/3 327/3/3 331/3/3
f 338/3/3 336/3/3 335/3/3
f 338/3/3 337/3/3 336/3/3
f 338/3/3 335/3/3 334/3/3
f 338/3/3 334/3/3 333/3/3
f 339/3/3 337/3/3 338/3/3
f 345/6/3 341/6/3 340/6/3
f 346/5/3 342/5/3 341/5/3
f 346/6/3 341/6/3 345/6/3
f 347/4/3 343/4/3 342/4/3
f 347/5/3 342/5/3 346/5/3
f 348/3/3 344/3/3 343/3/3
f 348/4/3 343/4/3 347/4/3
f 349/3/3 344/3/3 348/3/3
f 354/5/3 351/5/3 350/5/3
f 355/4/3 352/4/3 351/4/3
f 355/5/3 351/5/3 354/5/3
f 356/3/3 353/3/3 352/3/3
f 356/4/3 352/4/3 355/4/3
f 357/3/3 353/3/3 356/3/3
f 361/4/3 359/4/3 358/4/3
f 362/3/3 360/3/3 359/3/3
f 362/4/3 359/4/3 361/4/3
f 363/3/3 362/3/3 361/3/3
f 364/3/3 360/3/3 362/3/3
f 364/3/3 362/3/3 363/3/3
f 367/3/3 366/3/3 365/3/3
f 368/3/3 366/3/3 367/3/3
f 369/11/4 370/11/4 379/11/4
f 370/10/4 371/10/4 380/10/4
f 379/11/4 370/11/4 380/11/4
f 371/9/4 372/9/4 381/9/4
f 380/10/4 371/10/4 381/10/4
f 372/8/4 373/8/4 382/8/4
f 381/9/4 372/9/4 382/9/4
f 373/7/4 374/7/4 383/7/4
f 382/8/4 373/8/4 383/8/4
f 374/6/4 375/6/4 384/6/4
f 383/7/4 374/7/4 384/7/4
f 375/5/4 376/5/4 385/5/4
f 384/6/4 375/6/4 385/6/4
f 376/4/4 377/4/4 386/4/4
f 385/5/4 376/5/4 386/5/4
f 377/3/4 378/3/4 387/3/4
f 386/4/4 377/4/4 387/4/4
f 387/3/4 378/3/4 388/3/4
f 390/5/4 391/5/4 394/5/4
f 391/4/4 392/4/4 394/4/4
f 392/3/4 393/3/4 395/3/4
f 394/4/4 392/4/4 395/4/4
f 389/6/4 390/6/4 396/6/4
f 390/5/4 394/5/4 397/5/4
f 396/6/4 390/6/4 397/6/4
f 394/3/4 395/3/4 398/3/4
f 397/5/4 394/5/4 398/5/4
f 395/3/4 393/3/4 399/3/4
f 398/3/4 395/3/4 399/3/4
f 399/3/4 393/3/4 400/3/4
f 401/3/4 402/3/4 403/3/4
f 403/3/4 402/3/4 404/3/4
f 405/3/4 406/3/4 407/3/4
f 407/3/4 406/3/4 408/3/4
f 409/3/4 410/3/4 411/3/4
f 411/3/4 410/3/4 412/3/4
f 413/3/4 414/3/4 415/3/4
f 415/3/4 414/3/4 416/3/4
f 417/6/4 418/6/4 422/6/4
f 418/5/4 419/5/4 423/5/4
f 422/6/4 418/6/4 423/6/4
f 422/5/4 423/5/4 424/5/4
f 419/4/4 420/4/4 425/4/4
f 424/5/4 423/5/4 425/5/4
f 423/5/4 419/5/4 425/5/4
f 424/4/4 425/4/4 426/4/4
f 420/3/4 421/3/4 427/3/4
f 426/4/4 425/4/4 427/4/4
f 425/4/4 420/4/4 427/4/4
f 427/3/4 421/3/4 428/3/4
f 426/3/4 427/3/4 430/3/4
f 428/3/4 429/3/4 430/3/4
f 427/3/4 428/3/4 430/3/4
f 430/3/4 429/3/4 431/3/4
f 432/3/4 433/3/4 434/3/4
f 434/3/4 433/3/4 435/3/4
f 436/3/4 437/3/4 438/3/4
f 438/3/4 437/3/4 439/3/4
f 439/3/4 437/3/4 440/3/4
f 439/4/4 440/4/4 441/4/4
f 441/4/4 440/4/4 442/4/4
f 441/6/4 442/6/4 443/6/4
f 443/6/4 442/6/4 444/6/4
f 443/4/4 444/4/4 445/4/4
f 445/4/4 444/4/4 446/4/4
f 447/3/4 448/3/4 450/3/4
f 448/5/4 449/5/4 451/5/4
f 450/3/4 448/3/4 451/3/4
f 451/5/4 449/5/4 452/5/4
f 453/3/4 454/3/4 455/3/4
f 455/3/4 454/3/4 456/3/4
f 453/3/4 455/3/4 457/3/4
f 455/4/4 456/4/4 457/4/4
f 457/4/4 456/4/4 458/4/4
f 453/3/4 457/3/4 459/3/4
f 457/5/4 458/5/4 460/5/4
f 459/3/4 457/3/4 460/3/4
f 460/5/4 458/5/4 461/5/4
f 462/3/4 463/3/4 465/3/4
f 463/5/4 464/5/4 466/5/4
f 465/3/4 463/3/4 466/3/4
f 466/5/4 464/5/4 467/5/4
f 468/4/4 469/4/4 471/4/4
f 469/3/4 470/3/4 472/3/4
f 471/4/4 469/4/4 472/4/4
f 471/3/4 472/3/4 473/3/4
f 472/3/4 470/3/4 474/3/4
f 473/3/4 472/3/4 474/3/4
f 475/6/4 476/6/4 480/6/4
f 476/5/4 477/5/4 481/5/4
f 480/6/4 476/6/4 481/6/4
f 477/4/4 478/4/4 482/4/4
f 481/5/4 477/5/4 482/5/4
f 478/3/4 479/3/4 483/3/4
f 482/4/4 478/4/4 483/4/4
f 483/3/4 479/3/4 484/3/4
f 485/3/4 486/3/4 488/3/4
f 486/5/4 487/5/4 489/5/4
f 488/3/4 486/3/4 489/3/4
f 489/5/4 487/5/4 490/5/4
f 493/11/5 492/11/5 491/11/5
f 494/11/5 492/11/5 493/11/5
f 498/6/5 496/6/5 495/6/5
f 499/5/5 497/5/5 496/5/5
f 499/6/5 496/6/5 498/6/5
f 500/5/5 497/5/5 499/5/5
f 503/4/5 501/4/5 500/4/5
f 503/5/5 499/5/5 498/5/5
f 503/5/5 500/5/5 499/5/5
f 504/3/5 502/3/5 501/3/5
f 504/4/5 501/4/5 503/4/5
f 505/5/5 503/5/5 498/5/5
f 505/6/5 498/6/5 495/6/5
f 506/3/5 504/3/5 503/3/5
f 506/5/5 503/5/5 505/5/5
f 507/6/5 505/6/5 495/6/5
f 507/6/5 506/6/5 505/6/5
f 508/6/5 506/6/5 507/6/5
f 509/3/5 502/3/5 504/3/5
f 509/3/5 504/3/5 506/3/5
f 510/3/5 502/3/5 509/3/5
f 512/6/5 506/6/5 508/6/5
f 513/3/5 509/3/5 506/3/5
f 515/3/5 513/3/5 506/3/5
f 515/3/5 514/3/5 513/3/5
f 516/3/5 514/3/5 515/3/5
f 518/6/5 512/6/5 511/6/5
f 519/6/5 506/6/5 512/6/5
f 519/3/5 515/3/5 506/3/5
f 519/6/5 512/6/5 518/6/5
f 520/3/5 515/3/5 519/3/5
f 522/6/5 518/6/5 517/6/5
f 522/5/5 519/5/5 518/5/5
f 523/5/5 519/5/5 522/5/5
f 524/3/5 521/3/5 520/3/5
f 524/5/5 519/5/5 523/5/5
f 524/3/5 520/3/5 519/3/5
f 525/3/5 521/3/5 524/3/5
f 526/6/5 523/6/5 522/6/5
f 526/6/5 522/6/5 517/6/5
f 527/5/5 524/5/5 523/5/5
f 527/6/5 523/6/5 526/6/5
f 528/4/5 525/4/5 524/4/5
f 528/5/5 524/5/5 527/5/5
f 529/3/5 521/3/5 525/3/5
f 529/4/5 525/4/5 528/4/5
f 530/3/5 521/3/5 529/3/5
f 534/6/5 532/6/5 531/6/5
f 535/6/5 532/6/5 534/6/5
f 538/6/5 534/6/5 533/6/5
f 538/6/5 535/6/5 534/6/5
f 540/6/5 538/6/5 537/6/5
f 541/3/5 536/3/5 535/3/5
f 541/6/5 535/6/5 538/6/5
f 541/6/5 538/6/5 540/6/5
f 547/3/5 546/3/5 545/3/5
f 548/3/5 546/3/5 547/3/5
f 549/4/5 548/4/5 547/4/5
f 550/4/5 548/4/5 549/4/5
f 551/5/5 540/5/5 539/5/5
f 551/5/5 541/5/5 540/5/5
f 552/5/5 541/5/5 551/5/5
f 553/3/5 536/3/5 541/3/5
f 553/5/5 541/5/5 552/5/5
f 554/5/5 550/5/5 549/5/5
f 555/5/5 550/5/5 554/5/5
f 556/4/5 552/4/5 551/4/5
f 557/3/5 553/3/5 552/3/5
f 557/4/5 552/4/5 556/4/5
f 558/3/5 536/3/5 553/3/5
f 558/3/5 553/3/5 557/3/5
f 559/3/5 536/3/5 558/3/5
f 560/3/5 557/3/5 556/3/5
f 560/3/5 558/3/5 557/3/5
f 561/3/5 558/3/5 560/3/5
f 562/3/5 558/3/5 561/3/5
f 563/3/5 558/3/5 562/3/5
f 564/4/5 543/4/5 542/4/5
f 565/3/5 544/3/5 543/3/5
f 565/4/5 543/4/5 564/4/5
f 566/3/5 544/3/5 565/3/5
f 567/6/5 555/6/5 554/6/5
f 568/6/5 555/6/5 567/6/5
f 569/3/5 562/3/5 561/3/5
f 570/3/5 562/3/5 569/3/5
f 571/3/6 572/3/6 573/3/6
f 573/3/6 572/3/6 574/3/6
f 575/5/6 576/5/6 580/5/6
f 576/5/6 577/5/6 580/5/6
f 577/6/6 578/6/6 580/6/6
f 580/6/6 578/6/6 581/6/6
f 581/6/6 578/6/6 582/6/6
f 578/5/6 579/5/6 583/5/6
f 582/6/6 578/6/6 583/6/6
f 581/6/6 582/6/6 584/6/6
f 580/5/6 581/5/6 584/5/6
f 582/5/6 583/5/6 585/5/6
f 584/6/6 582/6/6 585/6/6
f 583/5/6 579/5/6 586/5/6
f 585/5/6 583/5/6 586/5/6
f 586/5/6 579/5/6 587/5/6
f 571/3/6 573/3/6 588/3/6
f 573/4/6 574/4/6 589/4/6
f 588/3/6 573/3/6 589/3/6
f 574/4/6 575/4/6 589/4/6
f 585/5/6 586/5/6 590/5/6
f 589/4/6 575/4/6 590/4/6
f 584/5/6 585/5/6 590/5/6
f 580/5/6 584/5/6 590/5/6
f 575/5/6 580/5/6 590/5/6
f 590/5/6 586/5/6 591/5/6
f 591/5/6 586/5/6 592/5/6
f 592/5/6 586/5/6 593/5/6
f 591/5/6 592/5/6 594/5/6
f 594/5/6 592/5/6 595/5/6
f 596/3/6 597/3/6 599/3/6
f 599/3/6 597/3/6 600/3/6
f 598/3/6 599/3/6 602/3/6
f 600/3/6 601/3/6 602/3/6
f 599/3/6 600/3/6 602/3/6
f 602/3/6 601/3/6 603/3/6
f 602/4/6 603/4/6 604/4/6
f 604/4/6 603/4/6 605/4/6
f 598/3/6 602/3/6 606/3/6
f 602/4/6 604/4/6 607/4/6
f 606/3/6 602/3/6 607/3/6
f 604/6/6 605/6/6 608/6/6
f 607/4/6 604/4/6 608/4/6
f 605/4/6 603/4/6 609/4/6
f 608/6/6 605/6/6 609/6/6
f 609/4/6 603/4/6 610/4/6
f 611/3/6 612/3/6 613/3/6
f 613/3/6 612/3/6 614/3/6
f 615/3/6 616/3/6 617/3/6
f 615/3/6 617/3/6 619/3/6
f 617/3/6 618/3/6 619/3/6
f 619/3/6 618/3/6 620/3/6
f 621/3/6 622/3/6 623/3/6
f 623/3/6 622/3/6 624/3/6
f 621/3/6 623/3/6 625/3/6
f 623/2/6 624/2/6 625/2/6
f 624/3/6 622/3/6 626/3/6
f 625/2/6 624/2/6 626/2/6
f 621/3/6 625/3/6 627/3/6
f 625/3/6 626/3/6 627/3/6
f 626/3/6 622/3/6 628/3/6
f 627/3/6 626/3/6 628/3/6
f 629/3/6 630/3/6 631/3/6
f 629/3/6 631/3/6 633/3/6
f 631/3/6 632/3/6 633/3/6
f 633/3/6 632/3/6 634/3/6
f 635/3/6 636/3/6 637/3/6
f 637/3/6 636/3/6 638/3/6
f 638/3/6 636/3/6 639/3/6
f 639/3/6 636/3/6 640/3/6
f 641/3/6 642/3/6 643/3/6
f 643/3/6 642/3/6 644/3/6
f 645/3/6 646/3/6 647/3/6
f 647/3/6 646/3/6 648/3/6
f 648/3/6 646/3/6 649/3/6
f 649/3/6 646/3/6 650/3/6
f 648/3/6 649/3/6 652/3/6
f 652/3/6 649/3/6 653/3/6
f 651/3/6 652/3/6 655/3/6
f 653/3/6 654/3/6 655/3/6
f 652/3/6 653/3/6 655/3/6
f 655/3/6 654/3/6 656/3/6
f 651/3/6 655/3/6 658/3/6
f 658/3/6 655/3/6 659/3/6
f 657/3/6 658/3/6 659/3/6
f 657/3/6 659/3/6 661/3/6
f 659/3/6 660/3/6 661/3/6
f 661/3/6 660/3/6 662/3/6
f 663/3/6 664/3/6 665/3/6
f 665/3/6 664/3/6 666/3/6
f 663/3/6 665/3/6 667/3/6
f 665/1/6 666/1/6 667/1/6
f 666/3/6 664/3/6 668/3/6
f 667/1/6 666/1/6 668/1/6
f 663/3/6 667/3/6 669/3/6
f 667/3/6 668/3/6 669/3/6
f 668/3/6 664/3/6 670/3/6
f 669/3/6 668/3/6 670/3/6
